<?xml version="1.0" encoding="UTF-8"?>
<svg id="Layer_1" data-name="Layer 1" xmlns="http://www.w3.org/2000/svg" viewBox="0 0 277.07 162.64">
  <defs>
    <style>
      .cls-1 {
        letter-spacing: -.01em;
      }

      .cls-1, .cls-2, .cls-3, .cls-4 {
        fill: #2e2d2c;
      }

      .cls-1, .cls-3 {
        font-family: Roboto-Regular, Roboto;
        font-size: 12px;
      }

      .cls-2 {
        font-family: Roboto-Bold, Roboto;
        font-size: 14px;
        font-weight: 700;
      }

      .cls-5 {
        fill: #d8d6d6;
      }

      .cls-6 {
        letter-spacing: 0em;
      }

      .cls-7 {
        letter-spacing: 0em;
      }

      .cls-8 {
        letter-spacing: 0em;
      }

      .cls-9 {
        letter-spacing: 0em;
      }
    </style>
  </defs>
  <text class="cls-2" transform="translate(113.32 26.88)"><tspan x="0" y="0">Idiomas</tspan></text>
  <g>
    <text class="cls-3" transform="translate(104.89 51.03) scale(.96 1)"><tspan x="0" y="0">Inglés C1</tspan></text>
    <g>
      <path class="cls-5" d="M164.21,38.98c.3,0,.6,0,.9,0,.19.02.38.04.57.07,2.01.3,3.65,1.24,4.89,2.84,1.31,1.68,1.77,3.6,1.48,5.7-.2,1.45-.81,2.73-1.79,3.82-1.67,1.84-3.76,2.66-6.23,2.49-1.01-.07-1.97-.35-2.85-.84-2.1-1.16-3.4-2.92-3.86-5.28-.05-.28-.08-.57-.12-.85,0-.32,0-.64,0-.96,0-.04.02-.09.03-.13.05-.34.08-.68.16-1.02.63-2.97,3.17-5.34,6.17-5.76.22-.03.44-.06.66-.09ZM169.07,46.43c-.01-2.51-2.08-4.46-4.53-4.39-2.28.07-4.26,1.92-4.26,4.4,0,2.45,1.99,4.42,4.45,4.39,2.42-.03,4.33-1.99,4.34-4.4Z"/>
      <path class="cls-4" d="M164.74,39c0,.06-.01.12-.01.18,0,.9,0,1.8,0,2.7,0,.06,0,.12,0,.17-2.46,0-4.2,1.98-4.37,3.96-.18,2.04.99,3.89,2.87,4.57,1.91.68,4.03,0,5.15-1.68,1.11-1.65,1.01-3.96-.51-5.53.71-.71,1.42-1.43,2.14-2.15.04.04.09.07.13.12,1.09,1.16,1.76,2.53,1.97,4.11.41,3.1-1.07,6.06-3.78,7.56-1.12.62-2.33.92-3.62.92-1.83,0-3.43-.59-4.81-1.77-1.41-1.2-2.26-2.72-2.55-4.55-.03-.22-.06-.44-.09-.66,0-.32,0-.64,0-.95,0-.04.02-.09.03-.13.05-.34.08-.68.16-1.01.63-2.96,3.17-5.33,6.17-5.75.22-.03.44-.06.66-.09.16,0,.32,0,.48,0Z"/>
    </g>
  </g>
  <text class="cls-2" transform="translate(110.16 75.71)"><tspan x="0" y="0">Software</tspan></text>
  <g>
    <text class="cls-3" transform="translate(186.43 142.67)"><tspan x="0" y="0">Rhinoceros </tspan></text>
    <g>
      <path class="cls-5" d="M259.41,131.94c.3,0,.6,0,.9,0,.19.02.38.04.57.07,2.01.3,3.65,1.24,4.89,2.84,1.31,1.68,1.77,3.6,1.48,5.7-.2,1.45-.81,2.73-1.79,3.82-1.67,1.84-3.76,2.66-6.23,2.49-1.01-.07-1.97-.35-2.85-.84-2.1-1.16-3.4-2.92-3.86-5.28-.05-.28-.08-.57-.12-.85,0-.32,0-.64,0-.96,0-.04.02-.09.03-.13.05-.34.08-.68.16-1.02.63-2.97,3.17-5.34,6.17-5.76.22-.03.44-.06.66-.09ZM264.27,139.39c-.01-2.51-2.08-4.46-4.53-4.39-2.28.07-4.26,1.92-4.26,4.4,0,2.45,1.99,4.42,4.45,4.39,2.42-.03,4.33-1.99,4.34-4.4Z"/>
      <path class="cls-4" d="M259.94,131.97c0,.06-.01.12-.01.18,0,.9,0,1.8,0,2.7,0,.06,0,.12,0,.17-2.46,0-4.2,1.98-4.37,3.96-.18,2.04.99,3.89,2.87,4.57,1.91.68,4.03,0,5.15-1.68,1.11-1.65,1.01-3.96-.51-5.53.71-.71,1.42-1.43,2.14-2.15.04.04.09.07.13.12,1.09,1.16,1.76,2.53,1.97,4.11.41,3.1-1.07,6.06-3.78,7.56-1.12.62-2.33.92-3.62.92-1.83,0-3.43-.59-4.81-1.77-1.41-1.2-2.26-2.72-2.55-4.55-.03-.22-.06-.44-.09-.66,0-.32,0-.64,0-.95,0-.04.02-.09.03-.13.05-.34.08-.68.16-1.01.63-2.96,3.17-5.33,6.17-5.75.22-.03.44-.06.66-.09.16,0,.32,0,.48,0Z"/>
    </g>
  </g>
  <g>
    <text class="cls-3" transform="translate(91.44 142.35)"><tspan x="0" y="0">Photoshop</tspan></text>
    <g>
      <path class="cls-5" d="M161.81,131.93c.3,0,.6,0,.9,0,.19.02.38.04.57.07,2.01.3,3.65,1.24,4.89,2.84,1.31,1.68,1.77,3.6,1.48,5.7-.2,1.45-.81,2.73-1.79,3.82-1.67,1.84-3.76,2.66-6.23,2.49-1.01-.07-1.97-.35-2.85-.84-2.1-1.16-3.4-2.92-3.86-5.28-.05-.28-.08-.57-.12-.85,0-.32,0-.64,0-.96,0-.04.02-.09.03-.13.05-.34.08-.68.16-1.02.63-2.97,3.17-5.34,6.17-5.76.22-.03.44-.06.66-.09ZM166.67,139.38c-.01-2.51-2.08-4.46-4.53-4.39-2.28.07-4.26,1.92-4.26,4.4,0,2.45,1.99,4.42,4.45,4.39,2.42-.03,4.33-1.99,4.34-4.4Z"/>
      <path class="cls-4" d="M162.35,131.96c0,.08-.03.16-.03.23,0,.88,0,1.76,0,2.64,0,.06,0,.12,0,.17-2.5-.03-4.4,2.14-4.38,4.39.01,1.21.43,2.25,1.28,3.11.85.86,1.9,1.27,3.11,1.3v3.08c-.31-.02-.6-.01-.9-.05-1.48-.18-2.8-.75-3.93-1.72-1.41-1.21-2.27-2.73-2.56-4.57-.03-.22-.06-.44-.09-.66,0-.32,0-.64,0-.96,0-.04.02-.09.03-.13.05-.34.08-.68.16-1.01.63-2.97,3.17-5.33,6.17-5.75.22-.03.44-.06.66-.09.16,0,.32,0,.48,0Z"/>
    </g>
  </g>
  <g>
    <text class="cls-3" transform="translate(186.43 121.29)"><tspan x="0" y="0">Office</tspan></text>
    <g>
      <path class="cls-5" d="M259.45,110.52c.3,0,.6,0,.9,0,.19.02.38.04.57.07,2.01.3,3.65,1.24,4.89,2.84,1.31,1.68,1.77,3.6,1.48,5.7-.2,1.45-.81,2.73-1.79,3.82-1.67,1.84-3.76,2.66-6.23,2.49-1.01-.07-1.97-.35-2.85-.84-2.1-1.16-3.4-2.92-3.86-5.28-.05-.28-.08-.57-.12-.85,0-.32,0-.64,0-.96,0-.04.02-.09.03-.13.05-.34.08-.68.16-1.02.63-2.97,3.17-5.34,6.17-5.76.22-.03.44-.06.66-.09ZM264.31,117.97c-.01-2.51-2.08-4.46-4.53-4.39-2.28.07-4.26,1.92-4.26,4.4,0,2.45,1.99,4.42,4.45,4.39,2.42-.03,4.33-1.99,4.34-4.4Z"/>
      <path class="cls-4" d="M259.92,110.56c0,.08-.03.16-.03.23,0,.88,0,1.76,0,2.64,0,.06,0,.12,0,.16-.36.05-.7.08-1.03.16-1.65.37-3.01,1.82-3.27,3.48-.26,1.65.24,3.04,1.49,4.14.7.61,1.54.94,2.48,1.01,1.16.09,2.2-.23,3.1-.96.9-.73,1.43-1.67,1.59-2.82.01-.08.03-.17.03-.25,0-.28,0-.23.25-.23.67,0,1.33,0,2,0,.27,0,.54-.02.82-.04v.63c-.04.27-.08.54-.13.8-.62,2.94-2.83,5.17-5.76,5.81-.29.06-.58.1-.88.15h-1.34s-.08-.02-.11-.03c-.98-.1-1.91-.37-2.77-.86-2.07-1.16-3.34-2.91-3.8-5.24-.05-.28-.08-.57-.12-.85,0-.32,0-.64,0-.95,0-.04.02-.09.03-.13.05-.34.08-.68.15-1.01.63-2.96,3.17-5.33,6.16-5.75.22-.03.44-.06.66-.09.16,0,.32,0,.48,0Z"/>
    </g>
  </g>
  <g>
    <text class="cls-3" transform="translate(9.69 99.78)"><tspan class="cls-7" x="0" y="0">Au</tspan><tspan class="cls-9" x="14.35" y="0">t</tspan><tspan class="cls-6" x="18.23" y="0">oc</tspan><tspan class="cls-8" x="31.26" y="0">ad</tspan><tspan x="44.48" y="0"> </tspan></text>
    <g>
      <path class="cls-5" d="M66.81,88.66c.3,0,.6,0,.9,0,.19.02.38.04.57.07,2.01.3,3.65,1.24,4.89,2.84,1.31,1.68,1.77,3.6,1.48,5.7-.2,1.45-.81,2.73-1.79,3.82-1.67,1.84-3.76,2.66-6.23,2.49-1.01-.07-1.97-.35-2.85-.84-2.1-1.16-3.4-2.92-3.86-5.28-.05-.28-.08-.57-.12-.85,0-.32,0-.64,0-.96,0-.04.02-.09.03-.13.05-.34.08-.68.16-1.02.63-2.97,3.17-5.34,6.17-5.76.22-.03.44-.06.66-.09ZM71.67,96.12c-.01-2.51-2.08-4.46-4.53-4.39-2.28.07-4.26,1.92-4.26,4.4,0,2.45,1.99,4.42,4.45,4.39,2.42-.03,4.33-1.99,4.34-4.4Z"/>
      <path class="cls-4" d="M66.87,88.67c.16,0,.32,0,.47,0,0,.06-.01.12-.01.18,0,.91,0,1.83,0,2.74v.17c-2.57.02-4.17,2.08-4.34,3.97-.1,1.07.14,2.06.72,2.95.57.89,1.41,1.46,2.4,1.77,1.55.5,3.47,0,4.67-1.56.6-.78.9-1.69.9-2.68,0-1.22-.43-2.27-1.26-3.15.72-.73,1.43-1.45,2.14-2.17.05.05.1.08.13.12.16.19.32.38.47.57.74.94,1.21,2.01,1.44,3.19.05.26.08.51.12.77v1.36c-.01.08-.03.16-.04.25-.15,1.21-.58,2.33-1.26,3.34-.48.72-1.08,1.32-1.77,1.83-1.32.97-2.8,1.42-4.44,1.39-1.65-.03-3.12-.52-4.41-1.55-.7-.56-1.3-1.2-1.76-1.97-.5-.82-.83-1.69-1-2.63-.05-.29-.08-.59-.12-.89,0-.32,0-.63,0-.95.03-.25.06-.51.1-.76.23-1.37.8-2.59,1.68-3.66.6-.73,1.35-1.29,2.17-1.76.73-.42,1.52-.66,2.36-.78.22-.03.44-.06.66-.09Z"/>
    </g>
  </g>
  <g>
    <text class="cls-3" transform="translate(92.38 99.4)"><tspan x="0" y="0">Revit</tspan></text>
    <g>
      <path class="cls-5" d="M160.86,88.72c.3,0,.6,0,.9,0,.19.02.38.04.57.07,2.01.3,3.65,1.24,4.89,2.84,1.31,1.68,1.77,3.6,1.48,5.7-.2,1.45-.81,2.73-1.79,3.82-1.67,1.84-3.76,2.66-6.23,2.49-1.01-.07-1.97-.35-2.85-.84-2.1-1.16-3.4-2.92-3.86-5.28-.05-.28-.08-.57-.12-.85,0-.32,0-.64,0-.96,0-.04.02-.09.03-.13.05-.34.08-.68.16-1.02.63-2.97,3.17-5.34,6.17-5.76.22-.03.44-.06.66-.09ZM165.72,96.17c-.01-2.51-2.08-4.46-4.53-4.39-2.28.07-4.26,1.92-4.26,4.4,0,2.45,1.99,4.42,4.45,4.39,2.42-.03,4.33-1.99,4.34-4.4Z"/>
      <path class="cls-4" d="M161.26,88.81c0,.08-.03.15-.03.23,0,.87,0,1.74,0,2.61,0,.06,0,.12,0,.17-1.91.13-3.31.99-4.02,2.78-.7,1.78-.27,3.37,1.05,4.78-.72.69-1.46,1.39-2.21,2.11-.23-.27-.51-.57-.75-.89-.81-1.08-1.27-2.29-1.42-3.63-.01-.1-.03-.2-.04-.3,0-.31,0-.63,0-.94,0-.04.02-.08.03-.13.05-.33.08-.67.15-1,.62-2.93,3.14-5.27,6.1-5.69.22-.03.44-.06.65-.09.16,0,.31,0,.47,0Z"/>
    </g>
  </g>
  <g>
    <text class="cls-3" transform="translate(186.43 99.67)"><tspan x="0" y="0">SketchUp</tspan></text>
    <g>
      <path class="cls-5" d="M259.45,88.72c.3,0,.6,0,.9,0,.19.02.38.04.57.07,2.01.3,3.65,1.24,4.89,2.84,1.31,1.68,1.77,3.6,1.48,5.7-.2,1.45-.81,2.73-1.79,3.82-1.67,1.84-3.76,2.66-6.23,2.49-1.01-.07-1.97-.35-2.85-.84-2.1-1.16-3.4-2.92-3.86-5.28-.05-.28-.08-.57-.12-.85,0-.32,0-.64,0-.96,0-.04.02-.09.03-.13.05-.34.08-.68.16-1.02.63-2.97,3.17-5.34,6.17-5.76.22-.03.44-.06.66-.09ZM264.31,96.17c-.01-2.51-2.08-4.46-4.53-4.39-2.28.07-4.26,1.92-4.26,4.4,0,2.45,1.99,4.42,4.45,4.39,2.42-.03,4.33-1.99,4.34-4.4Z"/>
      <path class="cls-4" d="M259.85,88.81c0,.08-.03.15-.03.23,0,.87,0,1.74,0,2.61,0,.06,0,.12,0,.17-1.91.13-3.31.99-4.02,2.78-.7,1.78-.27,3.37,1.05,4.78-.72.69-1.46,1.39-2.21,2.11-.23-.27-.51-.57-.75-.89-.81-1.08-1.27-2.29-1.42-3.63-.01-.1-.03-.2-.04-.3,0-.31,0-.63,0-.94,0-.04.02-.08.03-.13.05-.33.08-.67.15-1,.62-2.93,3.14-5.27,6.1-5.69.22-.03.44-.06.65-.09.16,0,.31,0,.47,0Z"/>
    </g>
  </g>
  <g>
    <text class="cls-1" transform="translate(9.69 121)"><tspan x="0" y="0">Project</tspan></text>
    <g>
      <path class="cls-5" d="M66.81,110.52c.3,0,.6,0,.9,0,.19.02.38.04.57.07,2.01.3,3.65,1.24,4.89,2.84,1.31,1.68,1.77,3.6,1.48,5.7-.2,1.45-.81,2.73-1.79,3.82-1.67,1.84-3.76,2.66-6.23,2.49-1.01-.07-1.97-.35-2.85-.84-2.1-1.16-3.4-2.92-3.86-5.28-.05-.28-.08-.57-.12-.85,0-.32,0-.64,0-.96,0-.04.02-.09.03-.13.05-.34.08-.68.16-1.02.63-2.97,3.17-5.34,6.17-5.76.22-.03.44-.06.66-.09ZM71.67,117.98c-.01-2.51-2.08-4.46-4.53-4.39-2.28.07-4.26,1.92-4.26,4.4,0,2.45,1.99,4.42,4.45,4.39,2.42-.03,4.33-1.99,4.34-4.4Z"/>
      <path class="cls-4" d="M67.21,110.62c0,.08-.03.15-.03.23,0,.87,0,1.74,0,2.61,0,.06,0,.12,0,.17-1.91.13-3.31.99-4.02,2.78-.7,1.78-.27,3.37,1.05,4.78-.72.69-1.46,1.39-2.21,2.11-.23-.27-.51-.57-.75-.89-.81-1.08-1.27-2.29-1.42-3.63-.01-.1-.03-.2-.04-.3,0-.31,0-.63,0-.94,0-.04.02-.08.03-.13.05-.33.08-.67.15-1,.62-2.93,3.14-5.27,6.1-5.69.22-.03.44-.06.65-.09.16,0,.31,0,.47,0Z"/>
    </g>
  </g>
  <g>
    <text class="cls-3" transform="translate(91.44 121.58)"><tspan x="0" y="0">Excel</tspan></text>
    <g>
      <path class="cls-5" d="M161.81,110.51c.3,0,.6,0,.9,0,.19.02.38.04.57.07,2.01.3,3.65,1.24,4.89,2.84,1.31,1.68,1.77,3.6,1.48,5.7-.2,1.45-.81,2.73-1.79,3.82-1.67,1.84-3.76,2.66-6.23,2.49-1.01-.07-1.97-.35-2.85-.84-2.1-1.16-3.4-2.92-3.86-5.28-.05-.28-.08-.57-.12-.85,0-.32,0-.64,0-.96,0-.04.02-.09.03-.13.05-.34.08-.68.16-1.02.63-2.97,3.17-5.34,6.17-5.76.22-.03.44-.06.66-.09ZM166.67,117.97c-.01-2.51-2.08-4.46-4.53-4.39-2.28.07-4.26,1.92-4.26,4.4,0,2.45,1.99,4.42,4.45,4.39,2.42-.03,4.33-1.99,4.34-4.4Z"/>
      <path class="cls-4" d="M162.35,110.54c0,.08-.03.16-.03.23,0,.88,0,1.76,0,2.64,0,.06,0,.12,0,.17-2.5-.03-4.4,2.14-4.38,4.39.01,1.21.43,2.25,1.28,3.11.85.86,1.9,1.27,3.11,1.3v3.08c-.31-.02-.6-.01-.9-.05-1.48-.18-2.8-.75-3.93-1.72-1.41-1.21-2.27-2.73-2.56-4.57-.03-.22-.06-.44-.09-.66,0-.32,0-.64,0-.96,0-.04.02-.09.03-.13.05-.34.08-.68.16-1.01.63-2.97,3.17-5.33,6.17-5.75.22-.03.44-.06.66-.09.16,0,.32,0,.48,0Z"/>
    </g>
  </g>
  <g>
    <text class="cls-3" transform="translate(9.69 142.92)"><tspan x="0" y="0">Figma</tspan></text>
    <g>
      <path class="cls-5" d="M66.81,132.77c.3,0,.6,0,.9,0,.19.02.38.04.57.07,2.01.3,3.65,1.24,4.89,2.84,1.31,1.68,1.77,3.6,1.48,5.7-.2,1.45-.81,2.73-1.79,3.82-1.67,1.84-3.76,2.66-6.23,2.49-1.01-.07-1.97-.35-2.85-.84-2.1-1.16-3.4-2.92-3.86-5.28-.05-.28-.08-.57-.12-.85,0-.32,0-.64,0-.96,0-.04.02-.09.03-.13.05-.34.08-.68.16-1.02.63-2.97,3.17-5.34,6.17-5.76.22-.03.44-.06.66-.09ZM71.67,140.22c-.01-2.51-2.08-4.46-4.53-4.39-2.28.07-4.26,1.92-4.26,4.4,0,2.45,1.99,4.42,4.45,4.39,2.42-.03,4.33-1.99,4.34-4.4Z"/>
      <path class="cls-4" d="M67.35,132.8c0,.08-.03.16-.03.23,0,.88,0,1.76,0,2.64,0,.06,0,.12,0,.17-2.5-.03-4.4,2.14-4.38,4.39.01,1.21.43,2.25,1.28,3.11.85.86,1.9,1.27,3.11,1.3v3.08c-.31-.02-.6-.01-.9-.05-1.48-.18-2.8-.75-3.93-1.72-1.41-1.21-2.27-2.73-2.56-4.57-.03-.22-.06-.44-.09-.66,0-.32,0-.64,0-.96,0-.04.02-.09.03-.13.05-.34.08-.68.16-1.01.63-2.97,3.17-5.33,6.17-5.75.22-.03.44-.06.66-.09.16,0,.32,0,.48,0Z"/>
    </g>
  </g>
</svg>